<?xml version="1.0" encoding="iso-8859-1"?>
<!-- Generator: Adobe Illustrator 19.0.0, SVG Export Plug-In . SVG Version: 6.00 Build 0)  -->
<svg version="1.1" id="Capa_1" xmlns="http://www.w3.org/2000/svg" xmlns:xlink="http://www.w3.org/1999/xlink" x="0px" y="0px"
	 viewBox="0 0 512 512" style="enable-background:new 0 0 512 512;" xml:space="preserve">
<path style="fill:#303C42;" d="M256,0C161.896,0,85.333,76.563,85.333,170.667c0,28.25,7.063,56.26,20.49,81.104L246.666,506.5
	c1.875,3.396,5.448,5.5,9.334,5.5c3.885,0,7.458-2.104,9.333-5.5l140.896-254.813c13.375-24.76,20.438-52.771,20.438-81.021
	C426.667,76.563,350.104,0,256,0z"/>
<path style="fill:#1E88E5;" d="M387.51,241.448L256,479.292l-131.458-237.75c-11.698-21.646-17.875-46.156-17.875-70.875
	c0-82.344,66.99-149.333,149.333-149.333s149.333,66.99,149.333,149.333C405.333,195.385,399.156,219.896,387.51,241.448z"/>
<circle style="fill:#303C42;" cx="256" cy="170.667" r="117.333"/>
<circle style="fill:#1E88E5;" cx="256" cy="170.667" r="96"/>
<path style="opacity:0.1;enable-background:new    ;" d="M181.333,202.667c0-52.938,43.063-96,96-96
	c26.293,0,50.12,10.658,67.475,27.837C330.488,99.465,296.133,74.667,256,74.667c-52.938,0-96,43.063-96,96
	c0,26.645,10.939,50.754,28.525,68.163C183.956,227.651,181.333,215.471,181.333,202.667z"/>
<path style="fill:#303C42;" d="M291.125,184.458l-24.458,24.458v-102.25C266.667,100.771,261.896,96,256,96
	c-5.896,0-10.667,4.771-10.667,10.667v102.25l-24.458-24.458c-4.167-4.167-10.917-4.167-15.083,0
	c-4.167,4.167-4.167,10.917,0,15.083l42.667,42.667c2.083,2.083,4.813,3.125,7.542,3.125c2.729,0,5.458-1.042,7.542-3.125
	l42.667-42.667c4.167-4.167,4.167-10.917,0-15.083C302.042,180.292,295.292,180.292,291.125,184.458z"/>
<linearGradient id="SVGID_1_" gradientUnits="userSpaceOnUse" x1="-43.3369" y1="638.8975" x2="-28.8354" y2="632.1357" gradientTransform="matrix(21.3333 0 0 -21.3333 996.3334 13791.667)">
	<stop  offset="0" style="stop-color:#FFFFFF;stop-opacity:0.2"/>
	<stop  offset="1" style="stop-color:#FFFFFF;stop-opacity:0"/>
</linearGradient>
<path style="fill:url(#SVGID_1_);" d="M256,0C161.896,0,85.333,76.563,85.333,170.667c0,28.25,7.063,56.26,20.49,81.104
	L246.666,506.5c1.875,3.396,5.448,5.5,9.334,5.5c3.885,0,7.458-2.104,9.333-5.5l140.896-254.813
	c13.375-24.76,20.438-52.771,20.438-81.021C426.667,76.563,350.104,0,256,0z"/>
<g>
</g>
<g>
</g>
<g>
</g>
<g>
</g>
<g>
</g>
<g>
</g>
<g>
</g>
<g>
</g>
<g>
</g>
<g>
</g>
<g>
</g>
<g>
</g>
<g>
</g>
<g>
</g>
<g>
</g>
</svg>
